# xmcd
#
# Track frame offsets:
# 150
# 18257
# 41429
# 65776
# 84352
# 109799
# 128518
# 143850
# 161481
# 186118
# 204862
# 224700
# 240794
# 260232
#
# Disc length: 3792 seconds
#
#
# Revision: 4
# Processed by: cddbd v1.5.2PL0 Copyright (c) Steve Scherf et al.
# Submitted via: FreeRIP 2.96 
#
DISCID=bf0ece0e
DTITLE=Jairo Lambari Fernandes - Buena Vida
DYEAR=1900
DGENRE=
TTITLE0=Por Bendizer-te
TTITLE1=Na Boca da Noite Grande
TTITLE2=Romance Prá Quem Chega
TTITLE3=Buena Vida
TTITLE4=Flor do Mar
TTITLE5=Em Teus Braços
TTITLE6=Aguaceiro
TTITLE7=Quando a Ternura se Transofma em Rio
TTITLE8=Por Que Canto
TTITLE9=Se Um Dia Tu Chegares
TTITLE10=A Dom Antônio Trindade
TTITLE11=Solidão
TTITLE12=Antes do Fim
TTITLE13=Ainda Estes Dias...
EXTD=
EXTT0=
EXTT1=
EXTT2=Letra: Gujo TeixeiraMúsica: Jairo Lambari FernandesArranjos e Violões: Márcio RosadoTeclados e Programação de Contrabaixo: Paulo Bracht
EXTT3=
EXTT4=
EXTT5=
EXTT6=
EXTT7=
EXTT8=
EXTT9=
EXTT10=
EXTT11=
EXTT12=
EXTT13=
PLAYORDER=
